<?xml version="1.0" encoding="utf-8"?>
<!-- Generator: Adobe Illustrator 23.0.3, SVG Export Plug-In . SVG Version: 6.00 Build 0)  -->
<svg version="1.1" id="Capa_1" xmlns="http://www.w3.org/2000/svg" xmlns:xlink="http://www.w3.org/1999/xlink" x="0px" y="0px"
	 viewBox="0 0 1200 1200" enable-background="new 0 0 1200 1200" xml:space="preserve">
<path d="M529.272,614.098c-0.568-0.678-1.14-1.389-1.391-2.237c-1.384-4.675,6.788-9.357,9.692-11.672
	c0.644-0.513,1.323-1.043,2.133-1.193c1.272-0.235,2.497,0.516,3.563,1.25c16.261,11.187,29.751,25.868,43.09,40.417
	c0.202,0.22,0.412,0.456,0.466,0.75c0.062,0.336-0.092,0.67-0.247,0.974c-1.994,3.927-4.692,7.494-7.929,10.48
	c-1.018,0.939-2.285,1.88-3.65,1.647c-0.915-0.156-1.652-0.812-2.34-1.436c-8.32-7.549-17.326-14.395-25.857-21.704
	C540.552,626.016,534.556,620.411,529.272,614.098z M462.962,707.069c8.636,8.661,17.016,17.574,25.528,26.364
	c2.847,2.94,5.657,6.667,9.91,7.506c5.668,1.117,11.316-2.808,14.96-6.756c3.437-3.724,6.117-7.313,2.992-12.19
	c-3.24-5.055-7.959-9.103-11.982-13.518c-11.549-12.649-22.442-25.908-34.575-38.016c-4.357-4.348-8.179-3.646-12.725,0.269
	c-3.932,3.387-6.987,7.763-9.861,12.045c-0.39,0.58-0.773,1.165-1.16,1.747c-2.726,4.098,3.208,9.298,5.819,11.751
	C455.631,699.807,459.319,703.416,462.962,707.069z M542.071,652.036c-11.484,10.994-23.653,21.11-35.843,31.306
	c2.051,2.439,4.094,4.842,6.138,7.109c8.318,9.228,22.02,20.52,24.522,33.377c3.845,19.765-30.384,44.581-47.851,34.717
	c-6.377-3.601-11.586-10.737-16.732-15.896c-4.184-4.194-8.287-8.469-12.415-12.72c-16.408,20.776-34.927,40.599-31.855,68.966
	c1.205,11.125,1.304,22.319,2.87,33.408c6.564,46.454,5.664,93.644-2.498,139.844c-1.171,6.628-2.506,13.227-3.987,19.792
	c-0.996,4.415-4.138,9.54,0.433,8.242c7.649-2.17,17.988-21.423,21.822-27.292c12.14-18.584,22.197-38.557,32.527-58.176
	c23.55-44.726,46.051-90.004,67.48-135.785c10.302-22.01,20.358-44.135,30.161-66.371c5.761-13.067,14.972-30.182,15.05-45.917
	c-5.393,5.269-11.387,9.045-16.21,9.327C564.336,676.633,550.643,660.623,542.071,652.036z M1126.365,74.352
	c-5.559,12.441-13.252,24.165-19.963,36.017c-12.389,21.879-24.718,43.793-37.228,65.604c-4.318,7.527-9.586,22.758-19,24.917
	c-5.935,1.361-14.528-1.839-20.782-2.081c-8.351-0.324-16.946,0.059-25.042,2.31c-27.719,7.707-49.772,33.423-69.537,52.86
	c-23.631,23.239-46.411,47.331-68.736,71.823c-45.946,50.409-89.979,102.524-135.926,152.933
	c-31.243,34.277-65.313,65.915-91.821,104.212c-5.451,7.875-10.217,15.883-11.612,25.567c-2.154,14.949,4.404,27.514,7.711,41.662
	c4.083,17.47-5.55,33.619-12.093,49.438c-7.083,17.125-14.603,34.069-22.234,50.956c-29.936,66.245-60.011,132.462-91.787,197.849
	c-15.823,32.558-32.055,64.918-48.817,97.003c-15.445,29.566-29.565,62.436-49.405,89.341
	c-10.399,14.103-29.535,23.495-41.404,4.742c-9.128-14.422-4.786-35.988-4.164-52.049c1.41-36.414,5.284-72.454,9.427-108.639
	c4.12-35.991,9.154-72.161,9.818-108.418c0.458-24.98-1.844-52.132-28.412-62.828c-13.13-5.286-26.879-3.593-40.561-2.015
	c-19.265,2.22-38.495,4.633-57.801,6.49c-35.301,3.395-70.668,6.028-106.091,7.752c-17.431,0.849-34.877,1.525-52.325,1.92
	c-6.754,0.153-15.722,1.61-21.801-2.142c-8.242-5.088-9.405-17.359-6.15-25.4c5.614-13.87,23.556-21.733,35.709-28.869
	c15.71-9.224,31.667-17.956,48.15-25.729c62.77-29.601,127.779-53.245,189.747-84.777c31.087-15.819,61.86-32.247,92.923-48.112
	c15.105-7.715,30.277-15.302,45.583-22.614c15.624-7.464,32.061-16.927,48.945-21.007c15.885-3.838,35.268,7.738,49.03-1.793
	c5.748-3.981,10.826-9.266,15.909-14.024c106.399-99.616,205.814-206.927,308.712-310.115c8.507-8.532,17.032-17.046,25.626-25.491
	c18.52-18.232,35.394-35.621,37.623-62.474c0.709-8.546,0.209-16.969-0.031-25.507c-0.078-2.758-1.113-5.418,0.123-8.165
	c3.3-7.336,20.496-11.855,27.54-15.07c32.401-14.787,65.118-28.935,98.202-42.129c7.764-3.096,20.175-9.656,28.789-8.049
	C1136.135,52.663,1130.031,66.147,1126.365,74.352z M605.51,644.857c0.638-2.675,0.79-5.2,0.208-7.371
	c-2.695-10.048-16.512-19.979-23.305-26.877c-11.745-11.927-23.776-23.155-38.38-31.505c-3.661-2.094-8.002-1.328-11.039,1.424
	c-8.357,7.573-21.903,17.179-25.688,28.381c-0.102,0.234-0.171,0.485-0.251,0.732c-0.024,0.081-0.06,0.16-0.083,0.241
	c-0.015,0.053-0.013,0.1-0.027,0.152c-0.116,0.434-0.199,0.881-0.242,1.35c-0.226,1.765,0.063,3.333,0.725,4.676
	c2.957,8.517,12.206,16.897,20.777,24.017c-10.829,10.286-22.238,19.827-33.693,29.406c-5.643-6.436-11.565-12.538-18.075-17.241
	c-20.039-14.477-41.604,11.519-49.04,28.882c-0.124,0.29-0.178,0.574-0.273,0.861c-0.872,1.717-1.214,3.784-0.645,6.158
	c2.748,11.472,12.138,20.429,20.64,28.791c-15.698,20.496-34.58,39.893-37.79,66.708c-1.544,12.902,1.049,28.467,2.352,41.52
	c2.73,27.334,6.071,53.904,5.267,81.484c-0.925,31.724-8.31,61.346-12.739,92.463c-2.535,17.814,11.695,29.393,27.735,18.752
	c19.129-12.691,32.544-37.979,43.418-57.467c29.435-52.749,56.289-107.113,82.088-161.716
	c14.529-30.751,28.764-61.685,42.141-92.956C607.751,686.646,614.8,664.37,605.51,644.857z"/>
</svg>
